<svg width="33" height="32" viewBox="0 0 33 32" fill="none" xmlns="http://www.w3.org/2000/svg">
<rect x="0.634766" width="32" height="32" rx="6" fill="#385DA9"/>
<g clip-path="url(#clip0_448_1211)">
<path d="M19.7789 8.11201V10.464H18.3869C17.8749 10.464 17.5282 10.5707 17.3469 10.784C17.1656 10.9973 17.0749 11.3173 17.0749 11.744V13.44H19.6989L19.3469 16.08H17.0749V22.864H14.3389V16.08H12.0669V13.44H14.3389V11.488C14.3389 10.3787 14.6482 9.52001 15.2669 8.91201C15.8856 8.30401 16.7122 8.00001 17.7469 8.00001C18.6216 8.00001 19.2989 8.03735 19.7789 8.11201Z" fill="white"/>
</g>
<defs>
<clipPath id="clip0_448_1211">
<rect width="16" height="16" fill="white" transform="matrix(1 0 0 -1 8.63477 24)"/>
</clipPath>
</defs>
</svg>
