<svg width="31" height="30" viewBox="0 0 31 30" fill="none" xmlns="http://www.w3.org/2000/svg">
<rect x="0.634766" width="30" height="30" rx="6" fill="#0073B1"/>
<path d="M12.3657 12.8861V20.6281H9.78974V12.8861H12.3657ZM12.5337 10.4921C12.5337 10.8747 12.3984 11.1921 12.1277 11.4441C11.8571 11.6961 11.5071 11.8221 11.0777 11.8221H11.0637C10.6344 11.8221 10.2891 11.6961 10.0277 11.4441C9.76641 11.1921 9.63574 10.8747 9.63574 10.4921C9.63574 10.1094 9.77108 9.79205 10.0417 9.54005C10.3124 9.28805 10.6624 9.16205 11.0917 9.16205C11.5211 9.16205 11.8664 9.28805 12.1277 9.54005C12.3891 9.79205 12.5244 10.1094 12.5337 10.4921ZM21.6337 16.1901V20.6281H19.0717V16.4841C19.0717 15.9334 18.9644 15.5041 18.7497 15.1961C18.5351 14.8881 18.2037 14.7341 17.7557 14.7341C17.4291 14.7341 17.1584 14.8227 16.9437 15.0001C16.7291 15.1774 16.5611 15.4014 16.4397 15.6721C16.3837 15.8307 16.3557 16.0407 16.3557 16.3021V20.6281H13.7797C13.7891 18.5467 13.7937 16.8621 13.7937 15.5741V13.2641L13.7797 12.8861H16.3557V14.0061H16.3417C16.4444 13.8381 16.5517 13.6934 16.6637 13.5721C16.7757 13.4507 16.9204 13.3154 17.0977 13.1661C17.2751 13.0167 17.5037 12.9047 17.7837 12.8301C18.0637 12.7554 18.3624 12.7134 18.6797 12.7041C19.5664 12.7041 20.2804 12.9981 20.8217 13.5861C21.3631 14.1741 21.6337 15.0421 21.6337 16.1901Z" fill="white"/>
</svg>
