<svg width="33" height="32" viewBox="0 0 33 32" fill="none" xmlns="http://www.w3.org/2000/svg">
<rect x="0.634766" width="32" height="32" rx="6" fill="#D53F7F"/>
<path d="M18.9148 16C18.9148 15.3707 18.6961 14.832 18.2588 14.384C17.8215 13.936 17.2828 13.712 16.6428 13.712C16.0028 13.712 15.4641 13.936 15.0268 14.384C14.5895 14.832 14.3655 15.3707 14.3548 16C14.3441 16.6293 14.5681 17.168 15.0268 17.616C15.4855 18.064 16.0241 18.288 16.6428 18.288C17.2615 18.288 17.8001 18.064 18.2588 17.616C18.7175 17.168 18.9361 16.6293 18.9148 16ZM20.1468 16C20.1468 16.9707 19.8055 17.8027 19.1228 18.496C18.4401 19.1893 17.6135 19.5307 16.6428 19.52C15.6721 19.5093 14.8401 19.168 14.1468 18.496C13.4535 17.824 13.1121 16.992 13.1228 16C13.1335 15.008 13.4748 14.176 14.1468 13.504C14.8188 12.832 15.6508 12.4907 16.6428 12.48C17.6348 12.4693 18.4615 12.8107 19.1228 13.504C19.7841 14.1973 20.1255 15.0293 20.1468 16ZM21.1228 12.336C21.1228 12.56 21.0428 12.752 20.8828 12.912C20.7228 13.072 20.5255 13.152 20.2908 13.152C20.0561 13.152 19.8641 13.072 19.7148 12.912C19.5655 12.752 19.4855 12.56 19.4748 12.336C19.4641 12.112 19.5441 11.92 19.7148 11.76C19.8855 11.6 20.0775 11.52 20.2908 11.52C20.5041 11.52 20.7015 11.6 20.8828 11.76C21.0641 11.92 21.1441 12.112 21.1228 12.336ZM16.6428 10.368C16.6001 10.368 16.3708 10.368 15.9548 10.368H15.0108C14.7975 10.368 14.5095 10.3787 14.1468 10.4C13.7841 10.4213 13.4801 10.448 13.2348 10.48C12.9895 10.512 12.7761 10.5707 12.5948 10.656C12.2961 10.7733 12.0348 10.944 11.8108 11.168C11.5868 11.392 11.4108 11.6533 11.2828 11.952C11.2188 12.1227 11.1655 12.336 11.1228 12.592C11.0801 12.848 11.0481 13.1573 11.0268 13.52C11.0055 13.8827 11.0001 14.1653 11.0108 14.368C11.0215 14.5707 11.0215 14.8853 11.0108 15.312C11.0001 15.7387 11.0001 15.968 11.0108 16C11.0215 16.032 11.0215 16.2613 11.0108 16.688C11.0001 17.1147 11.0001 17.4293 11.0108 17.632C11.0215 17.8347 11.0268 18.1173 11.0268 18.48C11.0268 18.8427 11.0588 19.152 11.1228 19.408L11.2828 20.048C11.4108 20.3467 11.5868 20.608 11.8108 20.832C12.0348 21.056 12.2961 21.2267 12.5948 21.344C12.7655 21.408 12.9788 21.4667 13.2348 21.52C13.4908 21.5733 13.7948 21.6 14.1468 21.6C14.4988 21.6 14.7868 21.6107 15.0108 21.632C15.2348 21.6533 15.5495 21.6533 15.9548 21.632C16.3601 21.6107 16.5895 21.6107 16.6428 21.632C16.6961 21.6533 16.9201 21.6533 17.3148 21.632C17.7095 21.6107 18.0241 21.6107 18.2588 21.632C18.4935 21.6533 18.7815 21.6427 19.1228 21.6C19.4641 21.5573 19.7735 21.5307 20.0508 21.52C20.3281 21.5093 20.5361 21.4507 20.6748 21.344C20.9735 21.2267 21.2401 21.056 21.4748 20.832C21.7095 20.608 21.8801 20.3467 21.9868 20.048C22.0508 19.8773 22.1041 19.664 22.1468 19.408C22.1895 19.152 22.2215 18.8427 22.2428 18.48C22.2641 18.1173 22.2695 17.8347 22.2588 17.632C22.2481 17.4293 22.2481 17.1147 22.2588 16.688C22.2695 16.2613 22.2695 16.032 22.2588 16C22.2481 15.968 22.2481 15.7387 22.2588 15.312C22.2695 14.8853 22.2695 14.5707 22.2588 14.368C22.2481 14.1653 22.2428 13.8827 22.2428 13.52C22.2428 13.1573 22.2108 12.848 22.1468 12.592L21.9868 11.952C21.8695 11.6533 21.6988 11.392 21.4748 11.168C21.2508 10.944 20.9841 10.7733 20.6748 10.656C20.5041 10.592 20.2961 10.5333 20.0508 10.48C19.8055 10.4267 19.4961 10.4 19.1228 10.4C18.7495 10.4 18.4615 10.3893 18.2588 10.368C18.0561 10.3467 17.7415 10.3467 17.3148 10.368C16.8881 10.3893 16.6641 10.3893 16.6428 10.368ZM23.4908 16C23.4908 17.3653 23.4748 18.3093 23.4428 18.832C23.3895 20.0693 23.0215 21.0293 22.3388 21.712C21.6561 22.3947 20.7015 22.7627 19.4748 22.816C18.9415 22.848 17.9975 22.864 16.6428 22.864C15.2881 22.864 14.3441 22.848 13.8108 22.816C12.5735 22.752 11.6135 22.384 10.9308 21.712C10.2481 21.04 9.88014 20.08 9.82681 18.832C9.79481 18.3093 9.77881 17.3653 9.77881 16C9.77881 14.6347 9.79481 13.6907 9.82681 13.168C9.88014 11.9307 10.2481 10.9707 10.9308 10.288C11.6135 9.60535 12.5735 9.23735 13.8108 9.18401C14.3335 9.15201 15.2775 9.13601 16.6428 9.13601C18.0081 9.13601 18.9521 9.15201 19.4748 9.18401C20.7121 9.24801 21.6668 9.61601 22.3388 10.288C23.0108 10.96 23.3788 11.92 23.4428 13.168C23.4748 13.6907 23.4908 14.6347 23.4908 16Z" fill="white"/>
</svg>
