<svg width="21" height="20" viewBox="0 0 21 20" fill="none" xmlns="http://www.w3.org/2000/svg">
<path d="M20.0525 0.122766C20.298 0.301338 20.3985 0.539434 20.3538 0.837053L17.4967 17.9799C17.4595 18.1957 17.3405 18.3631 17.1396 18.4821C17.0354 18.5417 16.9201 18.5714 16.7936 18.5714C16.7117 18.5714 16.6224 18.5528 16.5257 18.5156L11.4699 16.4509L8.76903 19.7433C8.6351 19.9144 8.45281 20 8.22215 20C8.12543 20 8.04358 19.9851 7.97662 19.9554C7.83525 19.9033 7.72178 19.8158 7.63621 19.6931C7.55065 19.5703 7.50787 19.4345 7.50787 19.2857V15.3906L17.1507 3.57143L5.21992 13.8951L0.811438 12.0871C0.536141 11.9829 0.387331 11.7783 0.36501 11.4732C0.350129 11.1756 0.469176 10.9561 0.722152 10.8147L19.2936 0.100447C19.4052 0.0334816 19.5242 0 19.6507 0C19.7995 0 19.9335 0.0409222 20.0525 0.122766Z" fill="white"/>
</svg>
