<svg width="31" height="30" viewBox="0 0 31 30" fill="none" xmlns="http://www.w3.org/2000/svg">
<rect x="0.634766" width="30" height="30" rx="6" fill="#33CCFF"/>
<path d="M21.4447 11.192C21.0993 11.696 20.6793 12.13 20.1847 12.494V12.816C20.1847 13.4973 20.0867 14.174 19.8907 14.846C19.6947 15.518 19.396 16.1667 18.9947 16.792C18.5933 17.4173 18.1127 17.9633 17.5527 18.43C16.9927 18.8967 16.3207 19.2793 15.5367 19.578C14.7527 19.8767 13.908 20.0167 13.0027 19.998C11.5933 19.998 10.3053 19.62 9.13867 18.864C9.31601 18.8827 9.51667 18.892 9.74067 18.892C10.9167 18.892 11.962 18.5327 12.8767 17.814C12.326 17.8047 11.836 17.6367 11.4067 17.31C10.9773 16.9833 10.6787 16.568 10.5107 16.064C10.688 16.092 10.8467 16.106 10.9867 16.106C11.2107 16.106 11.4347 16.078 11.6587 16.022C11.0707 15.9007 10.5853 15.6113 10.2027 15.154C9.82001 14.6967 9.62867 14.16 9.62867 13.544V13.516C9.98334 13.712 10.366 13.8193 10.7767 13.838C10.4313 13.6047 10.156 13.306 9.95067 12.942C9.74534 12.578 9.64267 12.172 9.64267 11.724C9.64267 11.276 9.75934 10.856 9.99267 10.464C10.6273 11.2387 11.3927 11.8593 12.2887 12.326C13.1847 12.7927 14.1553 13.0493 15.2007 13.096C15.154 12.9 15.1307 12.7087 15.1307 12.522C15.1307 11.822 15.378 11.2293 15.8727 10.744C16.3673 10.2587 16.96 10.0113 17.6507 10.002C18.388 10.002 19.004 10.268 19.4987 10.8C20.068 10.688 20.6047 10.4827 21.1087 10.184C20.9127 10.7813 20.5393 11.248 19.9887 11.584C20.474 11.528 20.9593 11.3973 21.4447 11.192Z" fill="white"/>
</svg>
